<svg width="25" height="25" viewBox="0 0 25 25" fill="none" xmlns="http://www.w3.org/2000/svg">
<path d="M25 4V13.861C25 16.1849 24.3712 17.9597 23.1137 19.1854C21.8561 20.3951 20.0732 21 17.765 21C16.6189 21 15.5922 20.8329 14.6848 20.4986C13.7934 20.1643 13.0611 19.6948 12.4881 19.0899C11.8991 19.6948 11.1589 20.1643 10.2674 20.4986C9.376 20.8329 8.36517 21 7.23496 21C4.92677 21 3.1439 20.3951 1.88634 19.1854C0.628781 17.9597 0 16.1849 0 13.861V4H3.86819V13.7416C3.86819 15.0946 4.14677 16.0974 4.70392 16.75C5.26106 17.3867 6.08883 17.7051 7.1872 17.7051C9.43171 17.7051 10.554 16.3839 10.554 13.7416V4H14.4222V13.7416C14.4222 16.3839 15.5524 17.7051 17.8128 17.7051C20.0096 17.7051 21.1079 16.3839 21.1079 13.7416V4H25Z" fill="#292E39"/>
</svg>
