<svg width="24" height="20" viewBox="0 0 24 20" fill="none" xmlns="http://www.w3.org/2000/svg">
<rect width="24" height="20" fill="#121723"/>
<g clip-path="url(#clip0_6054_4135)">
<path fill-rule="evenodd" clip-rule="evenodd" d="M4 4H26.8V4.92344H4V4ZM4 5.84688H26.8V6.77031H4V5.84688ZM4 7.69141H26.8V8.61719H4V7.69141ZM4 9.53828H26.8V10.4617H4V9.53828ZM4 11.3852H26.8V12.3086H4V11.3852ZM4 13.2297H26.8V14.1531H4V13.2297ZM4 15.0766H26.8V16H4V15.0766Z" fill="#BD3D44"/>
<path fill-rule="evenodd" clip-rule="evenodd" d="M4 4.92346H26.8V5.8469H4V4.92346ZM4 6.77034H26.8V7.69143H4V6.77034ZM4 8.61487H26.8V9.53831H4V8.61487ZM4 10.4617H26.8V11.3852H4V10.4617ZM4 12.3086H26.8V13.2321H4V12.3086ZM4 14.1532H26.8V15.0766H4V14.1532Z" fill="white"/>
<path fill-rule="evenodd" clip-rule="evenodd" d="M4 4H13.1195V10.4617H4V4Z" fill="#192F5D"/>
<path fill-rule="evenodd" clip-rule="evenodd" d="M4.75928 4.27655L4.84365 4.53202H5.11084L4.89521 4.68905L4.97725 4.94686L4.75928 4.78749L4.54365 4.94452L4.62568 4.68905L4.40771 4.53202H4.67959L4.75928 4.27655ZM6.28037 4.27655L6.3624 4.53202H6.63193L6.41396 4.68905L6.496 4.94686L6.28037 4.78749L6.0624 4.94452L6.14443 4.68905L5.92881 4.53202H6.196L6.28037 4.27655ZM7.79912 4.27655L7.8835 4.53202H8.14834L7.93272 4.68905L8.01475 4.94686L7.79678 4.78749L7.58115 4.94452L7.66318 4.68905L7.44522 4.53202H7.71475L7.79912 4.27655ZM9.32022 4.27655L9.40225 4.53202H9.67178L9.45381 4.68905L9.53818 4.94686L9.32022 4.78749L9.10225 4.94452L9.18662 4.68905L8.96865 4.53202H9.23584L9.32022 4.27655ZM10.839 4.27655L10.9233 4.53202H11.1905L10.9749 4.68905L11.0569 4.94686L10.839 4.78749L10.6233 4.94452L10.7054 4.68905L10.4897 4.53202H10.7569L10.839 4.27655ZM12.3601 4.27655L12.4421 4.53202H12.7116L12.4937 4.68905L12.578 4.94686L12.3601 4.78749L12.1421 4.94452L12.2265 4.68905L12.0085 4.53202H12.278L12.3601 4.27655ZM5.521 4.92342L5.60303 5.17889H5.87256L5.65459 5.33592L5.73428 5.59139L5.52334 5.43436L5.30537 5.59139L5.38271 5.33592L5.17178 5.17889H5.43896L5.521 4.92342ZM7.03975 4.92342L7.12412 5.17889H7.39131L7.17334 5.33592L7.25771 5.59139L7.03975 5.43436L6.82178 5.59139L6.90615 5.33592L6.68818 5.17889H6.95772L7.03975 4.92342ZM8.56084 4.92342L8.64287 5.17889H8.9124L8.69443 5.33592L8.77647 5.59139L8.56084 5.43436L8.34287 5.59139L8.4249 5.33592L8.20928 5.17889H8.47647L8.56084 4.92342ZM10.0796 4.92342L10.164 5.17889H10.4312L10.2132 5.33592L10.2976 5.59139L10.0796 5.43436L9.86397 5.59139L9.946 5.33592L9.72803 5.17889H9.9999L10.0796 4.92342ZM11.6007 4.92342L11.6827 5.17889H11.9522L11.7343 5.33592L11.8163 5.59139L11.6007 5.43436L11.3827 5.59139L11.4647 5.33592L11.2491 5.17889H11.5163L11.6007 4.92342ZM4.75928 5.56796L4.84365 5.82811H5.11084L4.89521 5.98514L4.97725 6.24061L4.75928 6.08124L4.54365 6.24061L4.62568 5.9828L4.40771 5.82577H4.67959L4.75928 5.56796ZM6.28037 5.56796L6.3624 5.82577H6.63193L6.41396 5.9828L6.496 6.23827L6.28037 6.07889L6.0624 6.23827L6.14443 5.98046L5.92881 5.82342H6.196L6.28037 5.56796ZM7.79912 5.56796L7.8835 5.82577H8.14834L7.93272 5.9828L8.01475 6.23827L7.79678 6.07889L7.58115 6.23827L7.66318 5.98046L7.44522 5.82342H7.71475L7.79912 5.56796ZM9.32022 5.56796L9.40225 5.82577H9.67178L9.45381 5.9828L9.53818 6.23827L9.32022 6.07889L9.10225 6.23827L9.18662 5.98046L8.96865 5.82342H9.23584L9.32022 5.56796ZM10.839 5.56796L10.9233 5.82577H11.1905L10.9749 5.9828L11.0569 6.23827L10.839 6.07889L10.6233 6.23827L10.7054 5.98046L10.4897 5.82342H10.7569L10.839 5.56796ZM12.3601 5.56796L12.4421 5.82577H12.7116L12.4937 5.9828L12.578 6.23827L12.3601 6.07889L12.1421 6.23827L12.2265 5.98046L12.0085 5.82342H12.278L12.3601 5.56796ZM5.521 6.21483L5.60303 6.4703H5.87256L5.65459 6.62733L5.73662 6.88514L5.521 6.72577L5.30303 6.8828L5.38506 6.62733L5.16943 6.4703H5.43662L5.521 6.21483ZM7.03975 6.21483L7.12412 6.4703H7.39131L7.17334 6.62733L7.25771 6.88514L7.03975 6.72577L6.82178 6.8828L6.90615 6.62733L6.68818 6.4703H6.95772L7.03975 6.21483ZM8.56084 6.21483L8.64287 6.4703H8.9124L8.69443 6.62733L8.77647 6.88514L8.56084 6.72577L8.34287 6.8828L8.4249 6.62733L8.20928 6.4703H8.47647L8.56084 6.21483ZM10.0796 6.21483L10.164 6.4703H10.4312L10.2155 6.62733L10.2976 6.88514L10.0796 6.72577L9.86397 6.8828L9.946 6.62733L9.72803 6.4703H9.9999L10.0796 6.21483ZM11.6007 6.21483L11.6827 6.4703H11.9522L11.7343 6.62733L11.8163 6.88514L11.6007 6.72577L11.3827 6.8828L11.4647 6.62733L11.2491 6.4703H11.5163L11.6007 6.21483ZM4.75928 6.86171L4.84365 7.11717H5.11084L4.89521 7.2742L4.97725 7.53202L4.75928 7.37264L4.54365 7.52967L4.62568 7.2742L4.40771 7.11717H4.67959L4.75928 6.86171ZM6.28037 6.86171L6.3624 7.11717H6.63193L6.41396 7.2742L6.496 7.52967L6.28037 7.37264L6.0624 7.52967L6.14443 7.2742L5.92881 7.11717H6.196L6.28037 6.86171ZM7.79912 6.86171L7.8835 7.11717H8.14834L7.93272 7.2742L8.01475 7.53202L7.79678 7.37264L7.58115 7.52967L7.66318 7.2742L7.44522 7.11717H7.71475L7.79912 6.86171ZM9.32022 6.86171L9.40225 7.11717H9.67178L9.45381 7.2742L9.53818 7.53202L9.32022 7.37264L9.10225 7.52967L9.18662 7.2742L8.96865 7.11717H9.23584L9.32022 6.86171ZM10.839 6.86171L10.9233 7.11717H11.1905L10.9749 7.2742L11.0569 7.53202L10.839 7.37264L10.6233 7.52967L10.7054 7.2742L10.4897 7.11717H10.7569L10.839 6.86171ZM12.3601 6.86171L12.4421 7.11717H12.7116L12.4937 7.2742L12.578 7.53202L12.3601 7.37264L12.1421 7.52967L12.2265 7.2742L12.0085 7.11717H12.278L12.3601 6.86171ZM5.521 7.50858L5.60303 7.76405H5.87256L5.65459 7.92108L5.73662 8.17655L5.521 8.01717L5.30303 8.17655L5.38506 7.91874L5.16943 7.7617H5.43662L5.521 7.50858ZM7.03975 7.50858L7.12412 7.76405H7.39131L7.17334 7.92108L7.25771 8.17655L7.03975 8.01717L6.82178 8.17655L6.90615 7.91874L6.68818 7.7617H6.95772L7.03975 7.50858ZM8.56084 7.50858L8.64287 7.76405H8.9124L8.69443 7.92108L8.77647 8.17655L8.56084 8.01717L8.34287 8.17655L8.4249 7.91874L8.20928 7.7617H8.47647L8.56084 7.50858ZM10.0796 7.50858L10.164 7.76405H10.4312L10.2155 7.92108L10.2976 8.17655L10.0796 8.01717L9.86397 8.17655L9.946 7.91874L9.72803 7.7617H9.9999L10.0796 7.50858ZM11.6007 7.50858L11.6827 7.76405H11.9522L11.7343 7.92108L11.8163 8.17655L11.6007 8.01717L11.3827 8.17655L11.4647 7.91874L11.2491 7.7617H11.5163L11.6007 7.50858ZM4.75928 8.15311L4.84365 8.41092H5.11084L4.89521 8.56795L4.97725 8.82108L4.75928 8.66405L4.54365 8.82108L4.62568 8.56561L4.40771 8.40858H4.67959L4.75928 8.15311ZM6.28037 8.15311L6.3624 8.41092H6.63193L6.41396 8.56795L6.49834 8.82108L6.28037 8.66405L6.0624 8.82108L6.14678 8.56561L5.92881 8.40858H6.196L6.28037 8.15311ZM7.79912 8.15311L7.8835 8.41092H8.14834L7.93272 8.56795L8.01475 8.82108L7.79678 8.66405L7.58115 8.82108L7.66318 8.56561L7.44522 8.40858H7.71475L7.79912 8.15311ZM9.32022 8.15311L9.40225 8.41092H9.67178L9.45381 8.56795L9.53818 8.82108L9.32022 8.66405L9.10225 8.82108L9.18662 8.56561L8.96865 8.40858H9.23584L9.32022 8.15311ZM10.839 8.15311L10.9233 8.41092H11.1905L10.9749 8.56795L11.0569 8.82108L10.839 8.66405L10.6233 8.82108L10.7054 8.56561L10.4897 8.40858H10.7569L10.839 8.15311ZM12.3601 8.15311L12.4421 8.41092H12.7116L12.4937 8.56795L12.578 8.82108L12.3601 8.66405L12.1421 8.82108L12.2265 8.56561L12.0085 8.40858H12.278L12.3601 8.15311ZM5.521 8.79999L5.60303 9.05545H5.87256L5.65459 9.21248L5.73662 9.4703L5.521 9.31092L5.30303 9.46795L5.38506 9.21248L5.16943 9.05545H5.43662L5.521 8.79999ZM7.03975 8.79999L7.12412 9.05545H7.39131L7.17334 9.21248L7.25771 9.4703L7.03975 9.31092L6.82178 9.46795L6.90615 9.21248L6.68818 9.05545H6.95772L7.03975 8.79999ZM8.56084 8.79999L8.64287 9.05545H8.9124L8.69443 9.21248L8.77647 9.4703L8.56084 9.31092L8.34287 9.46795L8.4249 9.21248L8.20928 9.05545H8.47647L8.56084 8.79999ZM10.0796 8.79999L10.164 9.05545H10.4312L10.2155 9.21248L10.2976 9.4703L10.0796 9.31092L9.86397 9.46795L9.946 9.21248L9.72803 9.05545H9.9999L10.0796 8.79999ZM11.6007 8.79999L11.6827 9.05545H11.9522L11.7343 9.21248L11.8163 9.4703L11.6007 9.31092L11.3827 9.46795L11.4647 9.21248L11.2491 9.05545H11.5163L11.6007 8.79999ZM4.75928 9.44686L4.84365 9.70233H5.11084L4.89521 9.85936L4.97725 10.1148L4.75928 9.9578L4.54365 10.1148L4.62568 9.85702L4.40771 9.69998H4.67959L4.75928 9.44686ZM6.28037 9.44686L6.3624 9.70233H6.63193L6.41396 9.85936L6.49834 10.1148L6.28037 9.9578L6.0624 10.1148L6.14678 9.85702L5.92881 9.69998H6.196L6.28037 9.44686ZM7.79912 9.44686L7.8835 9.70233H8.14834L7.9374 9.85936L8.01943 10.1148L7.80147 9.9578L7.58584 10.1148L7.66787 9.85702L7.4499 9.69998H7.71943L7.79912 9.44686ZM9.32022 9.44686L9.40225 9.70233H9.67178L9.45381 9.85936L9.53818 10.1148L9.32022 9.9578L9.10225 10.1148L9.18662 9.85702L8.96865 9.69998H9.23584L9.32022 9.44686ZM10.839 9.44686L10.9233 9.70233H11.1905L10.9749 9.85936L11.0569 10.1148L10.839 9.9578L10.6233 10.1148L10.7054 9.85702L10.4897 9.69998H10.7569L10.839 9.44686ZM12.3601 9.44686L12.4421 9.70233H12.7116L12.4937 9.85936L12.578 10.1148L12.3601 9.9578L12.1421 10.1148L12.2265 9.85702L12.0085 9.69998H12.278L12.3601 9.44686Z" fill="white"/>
</g>
<defs>
<clipPath id="clip0_6054_4135">
<rect width="16" height="12" fill="white" transform="translate(4 4)"/>
</clipPath>
</defs>
</svg>
