<svg width="20" height="20" viewBox="0 0 20 20" fill="none" xmlns="http://www.w3.org/2000/svg">
<g clip-path="url(#clip0_63590_1262)">
<path d="M10 20C15.5228 20 20 15.5228 20 9.99998C20 4.47714 15.5228 0 10 0C4.47724 0 0 4.47714 0 9.99998C0 15.5228 4.47724 20 10 20Z" fill="#F0D288"/>
<path d="M16.9383 4.54391L13.2294 3.17676L7.89558 10.8637L8.42665 7.3751L5.52046 5.68219L0.173828 12.1141C0.424147 13.3858 0.91008 14.5718 1.58375 15.6239L4.77361 11.7711L3.59981 16.2962L7.23695 17.6271L12.6407 9.8464L11.4568 14.2958L14.4032 16.0179L20.0579 10.3174C20.0591 10.2534 20.0598 10.1889 20.0598 10.1246C20.0598 8.78258 19.8016 7.50132 19.3328 6.32896L16.048 9.6538L16.9383 4.54391Z" fill="#121723"/>
</g>
<defs>
<clipPath id="clip0_63590_1262">
<rect width="20" height="20" rx="10" fill="white"/>
</clipPath>
</defs>
</svg>
